<?xml version="1.0" encoding="utf-8"?><svg xmlns="http://www.w3.org/2000/svg" xmlns:xlink="http://www.w3.org/1999/xlink"><symbol viewBox="0 0 54 55" id="bi_messenger" xmlns="http://www.w3.org/2000/svg"><path d="M.701 26.996c0-15.049 11.57-26.19 26.5-26.19s26.5 11.141 26.5 26.19c0 15.05-11.57 26.19-26.5 26.19-2.683 0-5.253-.361-7.672-1.036a2.08 2.08 0 00-1.414.101l-5.26 2.37a2.085 2.085 0 01-1.986-.15 2.144 2.144 0 01-.71-.754 2.191 2.191 0 01-.279-1.007l-.146-4.802a2.19 2.19 0 00-.712-1.54c-5.154-4.696-8.32-11.5-8.32-19.371zm18.371-4.924l-7.784 12.582c-.745 1.208.709 2.568 1.825 1.708l8.364-6.467a1.57 1.57 0 011.915-.006l6.19 4.731c.44.336.943.575 1.477.703a3.903 3.903 0 003.138-.59c.454-.313.84-.72 1.133-1.193l7.784-12.582c.749-1.208-.708-2.568-1.825-1.707l-8.364 6.466a1.57 1.57 0 01-1.914.007l-6.191-4.735a3.943 3.943 0 00-1.477-.703 3.903 3.903 0 00-3.137.59c-.455.313-.84.72-1.134 1.193v.003z"/></symbol><symbol viewBox="0 0 53 38" id="chat" xmlns="http://www.w3.org/2000/svg"><path fill-rule="evenodd" clip-rule="evenodd" d="M8.966.822A8.048 8.048 0 00.918 8.87v28.785l18.273-4.85 25.652-.028a8.048 8.048 0 008.048-8.048V8.87A8.048 8.048 0 0044.843.822H8.966zm3.225 3.855c-3.646 0-6.602 2.708-6.602 6.048v21.631l14.988-3.644 21.042-.022c3.646 0 6.601-2.707 6.601-6.048V10.725c0-3.34-2.955-6.048-6.601-6.048H12.19z"/><path d="M5 18l43.5-1.5"/></symbol><symbol viewBox="0 0 376 382" id="circle" xmlns="http://www.w3.org/2000/svg"><ellipse cx="188" cy="191" rx="188" ry="191"/></symbol><symbol viewBox="0 0 52 24" id="folw" xmlns="http://www.w3.org/2000/svg"><path d="M51.02 13.06a1.5 1.5 0 000-2.12l-9.546-9.547a1.5 1.5 0 10-2.12 2.122L47.837 12l-8.485 8.485a1.5 1.5 0 102.121 2.122l9.546-9.546zM0 13.5h49.96v-3H0v3z"/></symbol><symbol viewBox="0 0 51 50" id="github" xmlns="http://www.w3.org/2000/svg"><path d="M25.555 4.167C15.157 4.166 6.294 11.559 4.629 21.621c-1.665 10.062 4.36 19.823 14.226 23.044 1.062.187 1.443-.452 1.443-1.002 0-.494-.017-1.802-.024-3.542-5.897 1.25-7.142-2.787-7.142-2.787a5.503 5.503 0 00-2.352-3.04c-1.913-1.29.147-1.26.147-1.26a4.442 4.442 0 013.244 2.141 4.498 4.498 0 002.715 2.123 4.594 4.594 0 003.448-.396 4.42 4.42 0 011.35-2.779c-4.706-.523-9.653-2.306-9.653-10.27a7.964 7.964 0 012.18-5.565 7.34 7.34 0 01.213-5.5s1.779-.56 5.827 2.127a20.445 20.445 0 0110.608 0c4.05-2.69 5.827-2.127 5.827-2.127a7.305 7.305 0 01.212 5.5 7.913 7.913 0 012.176 5.573c0 7.985-4.951 9.74-9.673 10.254a4.924 4.924 0 011.435 3.846c0 2.779-.026 5.02-.026 5.702 0 .556.378 1.202 1.46.998 9.861-3.227 15.88-12.988 14.212-23.048-1.668-10.06-10.531-17.448-20.927-17.446z"/></symbol><symbol viewBox="0 0 51 50" id="github-fff" xmlns="http://www.w3.org/2000/svg"><path d="M25.555 4.167C15.157 4.166 6.294 11.559 4.629 21.621c-1.665 10.062 4.36 19.823 14.226 23.044 1.062.187 1.443-.452 1.443-1.002 0-.494-.017-1.802-.024-3.542-5.897 1.25-7.142-2.787-7.142-2.787a5.503 5.503 0 00-2.352-3.04c-1.913-1.29.147-1.26.147-1.26a4.442 4.442 0 013.244 2.141 4.498 4.498 0 002.715 2.123 4.594 4.594 0 003.448-.396 4.42 4.42 0 011.35-2.779c-4.706-.523-9.653-2.306-9.653-10.27a7.964 7.964 0 012.18-5.565 7.34 7.34 0 01.213-5.5s1.779-.56 5.827 2.127a20.445 20.445 0 0110.608 0c4.05-2.69 5.827-2.127 5.827-2.127a7.305 7.305 0 01.212 5.5 7.913 7.913 0 012.176 5.573c0 7.985-4.951 9.74-9.673 10.254a4.924 4.924 0 011.435 3.846c0 2.779-.026 5.02-.026 5.702 0 .556.378 1.202 1.46.998 9.861-3.227 15.88-12.988 14.212-23.048-1.668-10.06-10.531-17.448-20.927-17.446z"/></symbol><symbol viewBox="0 0 23 6" id="home" xmlns="http://www.w3.org/2000/svg"><path d="M1.088 2.417a.35.35 0 000 .495l2.227 2.227a.35.35 0 10.495-.495l-1.98-1.98L3.81.685A.35.35 0 003.315.19L1.088 2.417zm21.577-.102H1.335v.7h21.33v-.7z"/></symbol><symbol viewBox="0 0 144 36" id="logo" xmlns="http://www.w3.org/2000/svg"><path d="M15.796 35.262a17.918 17.918 0 01-15.44-9.18c-.419-.749-.362-1.662.072-2.401a2.617 2.617 0 012.287-1.293l8.431.096a3 3 0 012.582 1.531l4.37 7.784c.413.737.4 1.64-.035 2.364-.393.656-1.08 1.09-1.845 1.099-.141.002-.282.002-.422 0zm0-34.557a17.918 17.918 0 00-15.44 9.18c-.419.748-.362 1.661.072 2.4a2.617 2.617 0 002.287 1.293l8.431-.095a3 3 0 002.582-1.532l4.37-7.784c.413-.737.4-1.639-.035-2.363-.393-.656-1.08-1.09-1.845-1.1h-.422zm74.679 15.747h5.018l-2.17-4.818H88.64l-2.183 4.818h4.017zm13.979-.817l-2.639-4.002h-4.596l5.056 7.354v4.85h4.205v-4.833l5.311-7.37h-4.579l-2.758 4zm34.585-4.001v5.67c.086.848-.129 1.7-.606 2.407a2.317 2.317 0 01-1.813.673 2.402 2.402 0 01-1.855-.681 3.546 3.546 0 01-.631-2.4v-5.669h-4.256v5.7a9.392 9.392 0 00.699 3.915 4.403 4.403 0 002.182 2.213 6.877 6.877 0 001.698.535c.702.125 1.415.185 2.128.179a8.587 8.587 0 003.637-.699 4.802 4.802 0 002.281-2.196 6.658 6.658 0 00.588-1.752c.137-.724.202-1.46.196-2.196v-5.698h-4.256.008zM65.474 23.465a1.279 1.279 0 01-.102-.51v-.785a4.305 4.305 0 00-.494-2.29 2.742 2.742 0 00-1.77-1.08 3.57 3.57 0 001.83-1.157 3.216 3.216 0 00.588-2.01 3.932 3.932 0 00-.606-2.263 3.564 3.564 0 00-1.983-1.311 9.61 9.61 0 00-1.6-.315 17.491 17.491 0 00-2.076-.11h-6.759v12.205h4.017v-3.472h2.453a2.78 2.78 0 011.677.364 1.698 1.698 0 01.451 1.37v.92c.002.156.03.311.085.459a.623.623 0 00.324.357h4.305a.777.777 0 01-.34-.372zM60.8 17.091a4.303 4.303 0 01-1.54.23h-2.74v-2.467h2.789a3.744 3.744 0 011.576.242.937.937 0 01.502.928v.121a.912.912 0 01-.584.946H60.8zm62.754-5.014a7.867 7.867 0 00-1.771-.561 10.493 10.493 0 00-2.024-.187 9.13 9.13 0 00-3.848.766 6.002 6.002 0 00-2.604 2.213 5.702 5.702 0 00-.699 1.582 7.128 7.128 0 00-.242 1.89v.034a6.618 6.618 0 00.893 3.591 5.318 5.318 0 002.547 2.093 8.747 8.747 0 001.819.51c.694.118 1.398.175 2.102.17a9.976 9.976 0 003.864-.689 5.351 5.351 0 003.261-3.701c.159-.64.236-1.298.229-1.957v-.068a6.249 6.249 0 00-.936-3.482 6.049 6.049 0 00-2.591-2.204zm-1.558 7.847a3.67 3.67 0 01-2.289.647 3.441 3.441 0 01-2.273-.69 2.549 2.549 0 01-.826-2.067v-.017a2.676 2.676 0 01.835-2.154 3.409 3.409 0 012.28-.707c.815-.043 1.619.2 2.273.689a2.667 2.667 0 01.848 2.183 2.482 2.482 0 01-.848 2.119v-.003zm-36.632-1.06l-2.256 4.971h4.307l.869-2.094h5.378l.885 2.094h4.273l-2.242-4.971H85.364zm-12.621.023h7.033v-2.435h-7.033v-1.635h7.864v-3.183h-11.78V23.84h12.035v-3.302h-8.124l.005-1.651zm-27.84-.029a2.239 2.239 0 01-.759 1.144 3.396 3.396 0 01-2.145.571 3.56 3.56 0 01-2.332-.69 2.545 2.545 0 01-.834-2.085v-.017a2.588 2.588 0 01.869-2.145 3.7 3.7 0 012.382-.698 3.319 3.319 0 012.026.535c.337.243.595.581.74.97h4.521a5.897 5.897 0 00-1.133-2.683 5.957 5.957 0 00-2.561-1.835 9.918 9.918 0 00-1.698-.442 11.338 11.338 0 00-1.914-.153 9.336 9.336 0 00-3.899.767 5.99 5.99 0 00-2.621 2.212 5.699 5.699 0 00-.715 1.6 7.14 7.14 0 00-.243 1.89v.035a6.738 6.738 0 00.877 3.617 5.156 5.156 0 002.51 2.069c.581.225 1.183.39 1.797.493a12.15 12.15 0 002.102.17 8.844 8.844 0 005.362-1.447 5.528 5.528 0 002.16-3.88h-4.5l.008.002z"/></symbol><symbol viewBox="0 0 138 210" id="logo-creayou" xmlns="http://www.w3.org/2000/svg"><path d="M90.228 3.2a101.766 101.766 0 00-47.894 22.055A101.673 101.673 0 0011.922 68.31l-.052.14c-1.677 4.57-.542 9.634 2.554 13.391a14.865 14.865 0 0013.977 5.196l47.191-8.074A17.032 17.032 0 0088.701 68.07l17.529-47.525a13.355 13.355 0 00-2.305-13.213c-2.793-3.324-7.036-5.143-11.332-4.509-.792.117-1.58.243-2.365.377zM36.74 136.036c-5.294.91-8.99 4.514-11.53 9.628-2.541 5.115-.533 10.611 1.084 12.709 11.274 14.607 25.09 23.862 42.29 30.561 17.199 6.7 35.9 8.585 54.092 5.454l.068-.012a93.23 93.23 0 001.937-.353c4.473-.862 7.996-4.2 9.515-8.493a13.832 13.832 0 00-2.398-13.455l-31.771-38.264a17.04 17.04 0 00-15.997-5.906l-47.29 8.131z"/><path d="M90.228 3.2a101.766 101.766 0 00-47.894 22.055A101.673 101.673 0 0011.922 68.31l-.052.14c-1.677 4.57-.542 9.634 2.554 13.391a14.865 14.865 0 0013.977 5.196l47.191-8.074A17.032 17.032 0 0088.701 68.07l17.529-47.525a13.355 13.355 0 00-2.305-13.213c-2.793-3.324-7.036-5.143-11.332-4.509-.792.117-1.58.243-2.365.377z"/></symbol><symbol viewBox="0 0 537 990" id="logo-min" xmlns="http://www.w3.org/2000/svg"><path d="M461.645.278A518.227 518.227 0 00202.1 69.798a518.569 518.569 0 00-190.292 190.83C-.565 282.15.757 308.585 13.06 330.143a75.691 75.691 0 0065.692 38.182l243.933.152c31.034.019 59.719-16.541 75.233-43.433l129.09-223.766a68.172 68.172 0 00-.158-68.407C515.7 13.752 495.966.944 473.846.423a518.02 518.02 0 00-12.201-.145zM78.272 621.835c-27.365.006-49.035 14.93-66.214 38.445C-5.12 683.795.216 713.155 6.523 725.099c43.982 83.16 105.363 141.609 185.934 190.131a516.96 516.96 0 00266.895 74.108h.351c3.327 0 6.673-.035 10.032-.103 23.208-.474 43.78-14.211 55.119-34.476a70.624 70.624 0 00-.415-69.708L397.977 665.283a86.767 86.767 0 00-75.221-43.498l-244.484.05z"/><path d="M461.645.278A518.227 518.227 0 00202.1 69.798a518.569 518.569 0 00-190.292 190.83C-.565 282.15.757 308.585 13.06 330.143a75.691 75.691 0 0065.692 38.182l243.933.152c31.034.019 59.719-16.541 75.233-43.433l129.09-223.766a68.172 68.172 0 00-.158-68.407C515.7 13.752 495.966.944 473.846.423a518.02 518.02 0 00-12.201-.145z"/></symbol><symbol viewBox="0 0 106 106" id="logo-rotate" xmlns="http://www.w3.org/2000/svg"><path d="M54.477 1.253A52.327 52.327 0 009.07 27.523c-1.249 2.172-1.115 4.84.127 7.015a7.643 7.643 0 006.633 3.853l24.624.015a8.761 8.761 0 007.594-4.382l13.029-22.58a6.876 6.876 0 00-.017-6.902c-1.126-1.93-3.119-3.222-5.352-3.274-.411-.01-.822-.015-1.231-.015zM15.785 63.971a7.7 7.7 0 00-6.684 3.88l-.907 1.588c-.677 1.184-.735 2.624-.098 3.829a52.21 52.21 0 0046.165 27.787h.035c.336 0 .674-.004 1.013-.011 2.343-.048 4.419-1.434 5.563-3.479a7.124 7.124 0 00-.043-7.034L48.06 68.356a8.761 8.761 0 00-7.593-4.39l-24.681.005z"/></symbol><symbol viewBox="0 0 21 21" id="mode" xmlns="http://www.w3.org/2000/svg"><path d="M17.924 13.576L21 10.5l-3.076-3.076V3.076h-4.348L10.5 0 7.424 3.076H3.076v4.348L0 10.5l3.076 3.076v4.348h4.348L10.5 21l3.076-3.076h4.348v-4.348zM10.5 16.068V4.932a5.566 5.566 0 015.568 5.568 5.566 5.566 0 01-5.568 5.568z"/></symbol><symbol viewBox="0 0 17 30" id="next" xmlns="http://www.w3.org/2000/svg"><path d="M2 2l12.767 12.767L2 27.535"/></symbol><symbol viewBox="0 0 32 40" id="pause" xmlns="http://www.w3.org/2000/svg"><path d="M20 .494h12v39H20zm-20 0h12v39H0z"/></symbol><symbol viewBox="0 0 175 175" id="play" xmlns="http://www.w3.org/2000/svg"><path d="M70.502 105.916l.07-37.049 32.049 18.585-32.12 18.464z"/><circle cx="87.186" cy="87.186" r="86.686"/></symbol><symbol viewBox="0 0 17 29" id="slider-arrow" xmlns="http://www.w3.org/2000/svg"><path d="M2.134 1.684L14.9 14.45 2.134 27.22"/></symbol><symbol viewBox="0 0 53 53" id="telegram" xmlns="http://www.w3.org/2000/svg"><path fill-rule="evenodd" clip-rule="evenodd" d="M52.703 26.817c0 14.442-11.709 26.151-26.151 26.151S.401 41.26.401 26.818C.4 12.374 12.11.665 26.552.665s26.151 11.71 26.151 26.151zM27.49 19.972c-2.543 1.057-7.627 3.247-15.25 6.568-1.238.493-1.888.975-1.947 1.445-.1.798.898 1.112 2.254 1.537.185.058.377.117.573.183 1.336.433 3.132.941 4.064.96.848.018 1.794-.33 2.838-1.045 7.122-4.81 10.798-7.24 11.029-7.292.163-.037.39-.085.543.052.152.135.137.392.122.462-.1.42-4.01 4.058-6.037 5.94a61.448 61.448 0 00-1.17 1.1c-.205.21-.414.413-.615.607-1.242 1.194-2.17 2.092.053 3.557 1.067.704 1.922 1.285 2.774 1.865.93.634 1.859 1.266 3.062 2.055.305.2.597.408.882.61 1.083.774 2.057 1.467 3.26 1.358.698-.065 1.421-.721 1.787-2.68.866-4.633 2.57-14.667 2.964-18.803.024-.343.01-.689-.043-1.029a1.102 1.102 0 00-.375-.708c-.312-.255-.796-.31-1.014-.305-.982.017-2.49.543-9.754 3.563z"/></symbol><symbol viewBox="0 0 45 45" id="whatsapp" xmlns="http://www.w3.org/2000/svg"><path d="M37.942 7.106a21.85 21.85 0 00-7.147-4.78 21.93 21.93 0 00-8.447-1.66C10.202.666.304 10.517.293 22.611a21.95 21.95 0 002.94 10.978L.114 44.965l11.692-3.051a22.142 22.142 0 0010.54 2.672h.012c12.148 0 22.044-9.851 22.055-21.956a21.784 21.784 0 00-1.68-8.406 21.863 21.863 0 00-4.795-7.118h.003zM22.348 40.87a18.343 18.343 0 01-9.334-2.547l-.667-.399-6.937 1.811 1.852-6.736-.433-.695A18.103 18.103 0 014.028 22.6c0-10.04 8.224-18.23 18.33-18.23a18.316 18.316 0 017.018 1.384 18.25 18.25 0 015.943 3.963 18.149 18.149 0 013.977 5.917 18.081 18.081 0 011.385 6.985c-.01 10.075-8.235 18.251-18.333 18.251zm10.054-13.66c-.548-.275-3.254-1.6-3.763-1.79-.506-.179-.876-.273-1.238.275-.37.546-1.427 1.789-1.744 2.146-.317.368-.645.41-1.196.138-.547-.277-2.325-.853-4.427-2.727-1.641-1.453-2.74-3.253-3.068-3.799-.317-.548-.03-.841.245-1.115.242-.244.548-.643.823-.958.278-.316.37-.549.55-.914.181-.371.095-.687-.041-.96-.14-.275-1.238-2.98-1.702-4.07-.445-1.078-.898-.928-1.238-.942-.317-.02-.687-.02-1.057-.02a2.035 2.035 0 00-1.47.684c-.507.549-1.923 1.875-1.923 4.58s1.975 5.305 2.253 5.673c.273.368 3.877 5.903 9.409 8.284a30.78 30.78 0 003.14 1.157c1.321.42 2.514.357 3.465.222 1.057-.161 3.257-1.33 3.721-2.611.457-1.285.457-2.381.318-2.611-.137-.233-.507-.368-1.057-.643z"/></symbol></svg>